# xmcd
#
# Track frame offsets:
#	150
#	2730
#	19921
#	36312
#	52802
#	84868
#	104066
#	122006
#	132493
#	154464
#	181609
#	206497
#	238535
#	245252
#	265659
#	286233
#	314647
#	339263
#
# Disc length: 4758 seconds
#
# Revision: 1
# Processed by: cddbd v1.5PL3 Copyright (c) Steve Scherf et al.
# Submitted via: CDmax 2.0
#
DISCID=f2129412
DTITLE=Jorma Kaukonen - Cowboy Angels - Live at the Columbus Music Hall - 11.
DTITLE=04.2000 - d1
DYEAR=2000
DGENRE=Blues
TTITLE0=Intro
TTITLE1=Cowboy Angels - You Ain't Going Nowhere
TTITLE2=Cowboy Angels - Me and My Uncle
TTITLE3=Cowboy Angels - Big River
TTITLE4=Cowboy Angels - Day In The Country
TTITLE5=Cowboy Angels - Dark Hollow
TTITLE6=Cowboy Angels - She Belongs to Me
TTITLE7=Cowboy Angels - Matchbox
TTITLE8=Cowboy Angels - I know You Rider
TTITLE9=Cowboy Angels - Bartender Blues
TTITLE10=Cowboy Angels w/ Jorma - Six Days on the Road
TTITLE11=Cowboy Angels w/ Jorma - Big Boss Man
TTITLE12=Intro
TTITLE13=Jorma - True Religion
TTITLE14=Jorma - Hesitation Blues
TTITLE15=Jorma - Uncle Sam Blues
TTITLE16=Jorma - Death Don't Have No Mercy
TTITLE17=Jorma - Do Not Go Gentle
EXTD=Jorma Kaukonen\n11-04-00 \nColumbus Music Hall, Columbus, OH \nOpening a
EXTD=ct: Cowboy Angels \n\nCowboy Angels\nDisc-1\nIntro\nYou Ain't Going Nowh
EXTD=ere\nMe and My Uncle\nBig River\nDay In The Country\nDark Hollow\nShe Be
EXTD=longs To Me\nmatchbox\nI Know You Rider\nBartender Blues\nSix Days On Th
EXTD=e Road*\nBig Boss Man*\n\nJorma Kaukonen\nIntro\nTrue Religion \nHesitat
EXTD=ion Blues \nUncle Sam Blues \nDeath Don't Have No Mercy \nDo Not Go Gent
EXTD=le \n\nDisc-2\nI See The Light >Sunny Day Strut\nThe Terrible Operatio
EXTD=n \nLiving In The Moment \nEmbryonic Journey \nGood Shepherd \nSea Chil
EXTD=d \n99 Year Blues \nI Am The Light Of This World \nAnother Man Done Gone
EXTD=>Parchman Farm \nFollow The Drinking Gourd \nFool's Blues \nHome Of Th
EXTD=e Blues \nSan Francisco Bay Blues \nNever Happen No More \nMann's Fate \
EXTD=n\nEncore: \nWater Song \n\n*w/Jorma\n\nequipment:(sure SM-81 mics>grac
EXTD=e lunatec v2 preamp)+(matrix feed from FOH SBD)>\nsure FP-33 mixer>son
EXTD=y SBM-1 A/D converter>sony PCM-M1 digital recorder on maxell dat>\ncd-
EXTD=r master created with sonic foundry sound forge and cd architect
EXTT0=
EXTT1=
EXTT2=
EXTT3=
EXTT4=
EXTT5=
EXTT6=
EXTT7=
EXTT8=
EXTT9=
EXTT10=
EXTT11=
EXTT12=
EXTT13=
EXTT14=
EXTT15=
EXTT16=
EXTT17=
PLAYORDER=
